<svg width="1417" height="658" fill="none" xmlns="http://www.w3.org/2000/svg"><path d="M595.173 367.401h-1.707v247.21h1.707v-247.21z" fill="#7D9FAD" fill-opacity=".08"/><path d="M607.116 356.675h-22.917v268.42h22.917v-268.42zm-4.145 264.031h-14.383V361.307h14.383v259.399z" fill="#7D9FAD" fill-opacity=".08"/><path d="M598.096 367.401h-1.95v247.21h1.95v-247.21zM746.322 537.571h-29.255v7.314h29.255v-7.314z" fill="#7D9FAD" fill-opacity=".08"/><path d="M1402.86 335.708v-57.292h-43.4v-39.495H1300.95v39.495h-43.88v57.292h-8.04v68.019h-49.98v-22.673h-35.35v-16.822h-22.92V347.41h-21.45l-1.22-39.007-1.46 39.007h-21.21v16.822h-12.19v16.822h-17.56v22.673h-39.98v21.942h-11.46v120.435h-12.19V379.835h-43.637v-12.921h-15.602v-8.289H921.61v154.323l-26.573-3.413V324.249h-45.59v-16.578H732.183v16.578h-21.698v126.043h-3.657v-9.508h-15.603v-6.095h-21.21v75.821h-14.14V343.509h-9.508v-50.953h-30.23v-34.863h-40.714v34.863h-30.23v50.953h-4.876v127.018h-8.777v-9.02h-29.743v-27.061H386.483v-224.05h-21.942v-19.503h-7.801v-12.434h-9.021L346.5 0l-1.219 178.459h-9.264v12.434h-7.801v19.503h-21.942v137.502h-9.02v-16.335l-40.47-40.226-17.065 33.888v-27.793h-37.301V263.3h-88.741v-34.863H58.579v-26.573H22.986v-26.33h-33.4l-2.194-60.706-2.438 60.706H-47.96v26.33H-66.73v26.33h-27.305V263.3h-62.167v34.132H-174v365.695h1591V335.708h-14.14zM-123.047 622.413h-13.409v-13.409h13.409v13.409zm0-17.554h-13.409v-13.408h13.409v13.408zm0-17.553h-13.409v-13.409h13.409v13.409zm0-17.553h-13.409v-13.409h13.409v13.409zm0-17.31h-13.409v-13.409h13.409v13.409zm0-17.553h-13.409v-13.409h13.409v13.409zm0-17.554h-13.409v-13.408h13.409v13.408zm0-17.553h-13.409v-13.409h13.409v13.409zm0-17.553h-13.409v-13.409h13.409v13.409zm0-17.31h-13.409v-13.409h13.409v13.409zm0-17.553h-13.409v-13.409h13.409v13.409zm0-17.554h-13.409v-13.408h13.409v13.408zm0-17.553h-13.409v-13.409h13.409v13.409zm0-17.553h-13.409v-13.409h13.409v13.409zm0-17.31h-13.409v-13.409h13.409v13.409zm0-17.553h-13.409v-13.409h13.409v13.409zm0-17.554h-13.409v-13.408h13.409v13.408zm0-17.553h-13.409v-13.409h13.409v13.409zm18.285 297.676h-13.409v-13.409h13.409v13.409zm0-17.554h-13.409v-13.408h13.409v13.408zm0-17.553h-13.409v-13.409h13.409v13.409zm0-17.553h-13.409v-13.409h13.409v13.409zm0-17.31h-13.409v-13.409h13.409v13.409zm0-17.553h-13.409v-13.409h13.409v13.409zm0-17.554h-13.409v-13.408h13.409v13.408zm0-17.553h-13.409v-13.409h13.409v13.409zm0-17.553h-13.409v-13.409h13.409v13.409zm0-17.31h-13.409v-13.409h13.409v13.409zm0-17.553h-13.409v-13.409h13.409v13.409zm0-17.554h-13.409v-13.408h13.409v13.408zm0-17.553h-13.409v-13.409h13.409v13.409zm0-17.553h-13.409v-13.409h13.409v13.409zm0-17.31h-13.409v-13.409h13.409v13.409zm0-17.553h-13.409v-13.409h13.409v13.409zm0-17.554h-13.409v-13.408h13.409v13.408zm0-17.553h-13.409v-13.409h13.409v13.409zm18.284 297.676h-13.409v-13.409h13.41v13.409zm0-17.554h-13.409v-13.408h13.41v13.408zm0-17.553h-13.409v-13.409h13.41v13.409zm0-17.553h-13.409v-13.409h13.41v13.409zm0-17.31h-13.409v-13.409h13.41v13.409zm0-17.553h-13.409v-13.409h13.41v13.409zm0-17.554h-13.409v-13.408h13.41v13.408zm0-17.553h-13.409v-13.409h13.41v13.409zm0-17.553h-13.409v-13.409h13.41v13.409zm0-17.31h-13.409v-13.409h13.41v13.409zm0-17.553h-13.409v-13.409h13.41v13.409zm0-17.554h-13.409v-13.408h13.41v13.408zm0-17.553h-13.409v-13.409h13.41v13.409zm0-17.553h-13.409v-13.409h13.41v13.409zm0-17.31h-13.409v-13.409h13.41v13.409zm0-17.553h-13.409v-13.409h13.41v13.409zm0-17.554h-13.409v-13.408h13.41v13.408zm0-17.553h-13.409v-13.409h13.41v13.409zm18.04 297.676h-13.408v-13.409h13.409v13.409zm0-17.554h-13.408v-13.408h13.409v13.408zm0-17.553h-13.408v-13.409h13.409v13.409zm0-17.553h-13.408v-13.409h13.409v13.409zm0-17.31h-13.408v-13.409h13.409v13.409zm0-17.553h-13.408v-13.409h13.409v13.409zm0-17.554h-13.408v-13.408h13.409v13.408zm0-17.553h-13.408v-13.409h13.409v13.409zm0-17.553h-13.408v-13.409h13.409v13.409zm0-17.31h-13.408v-13.409h13.409v13.409zm0-17.553h-13.408v-13.409h13.409v13.409zm0-17.554h-13.408v-13.408h13.409v13.408zm0-17.553h-13.408v-13.409h13.409v13.409zm0-17.553h-13.408v-13.409h13.409v13.409zm0-17.31h-13.408v-13.409h13.409v13.409zm0-17.553h-13.408v-13.409h13.409v13.409zm0-17.554h-13.408v-13.408h13.409v13.408zm0-17.553h-13.408v-13.409h13.409v13.409zm18.285 297.676H-63.56v-13.409h13.408v13.409zm0-17.554H-63.56v-13.408h13.408v13.408zm0-17.553H-63.56v-13.409h13.408v13.409zm0-17.553H-63.56v-13.409h13.408v13.409zm0-17.31H-63.56v-13.409h13.408v13.409zm0-17.553H-63.56v-13.409h13.408v13.409zm0-17.554H-63.56v-13.408h13.408v13.408zm0-17.553H-63.56v-13.409h13.408v13.409zm0-17.553H-63.56v-13.409h13.408v13.409zm0-17.31H-63.56v-13.409h13.408v13.409zm0-17.553H-63.56v-13.409h13.408v13.409zm0-17.554H-63.56v-13.408h13.408v13.408zm0-17.553H-63.56v-13.409h13.408v13.409zm0-17.553H-63.56v-13.409h13.408v13.409zm0-17.31H-63.56v-13.409h13.408v13.409zm0-17.553H-63.56v-13.409h13.408v13.409zm0-17.554H-63.56v-13.408h13.408v13.408zm0-17.553H-63.56v-13.409h13.408v13.409zm392.265-85.329h8.533v8.533h-8.533v-8.533zm0 27.306h8.533v8.532h-8.533v-8.532zm0 27.061h8.533v8.533h-8.533v-8.533zm0 27.305h8.533v8.533h-8.533v-8.533zm0 27.062h8.533v8.532h-8.533v-8.532zm0 27.305h8.533v8.533h-8.533v-8.533zm0 27.061h8.533v8.533h-8.533v-8.533zm0 27.305h8.533v8.533h-8.533v-8.533zm0 27.062h8.533v8.533h-8.533v-8.533zM295.06 354.236h11.458v11.459H295.06v-11.459zm0 14.141h11.458v11.458H295.06v-11.458zm0 14.14h11.458v11.458H295.06v-11.458zm0 14.384h11.458v11.458H295.06v-11.458zm0 14.14h11.458V422.5H295.06v-11.459zm-26.33 72.408V471.99h11.458v11.459H268.73zm11.458 3.169v11.458H268.73v-11.458h11.458zm-11.458-17.553v-11.459h11.458v11.459H268.73zm0-14.628v-11.459h11.458v11.459H268.73zm-5.607-100.201h11.458v11.459h-11.458v-11.459zm0 14.141h11.458v11.458h-11.458v-11.458zm0 14.14h11.458v11.458h-11.458v-11.458zm0 14.384h11.458v11.458h-11.458v-11.458zm0 14.14h11.458V422.5h-11.458v-11.459zm-8.777 72.408V471.99h11.458v11.459h-11.458zm11.215 3.169v11.458h-11.459v-11.458h11.459zm-11.215-17.553v-11.459h11.458v11.459h-11.458zm0-14.628v-11.459h11.458v11.459h-11.458zm-5.851-100.201h11.458v11.459h-11.458v-11.459zm0 14.141h11.458v11.458h-11.458v-11.458zm0 14.14h11.458v11.458h-11.458v-11.458zm0 14.384h11.458v11.458h-11.458v-11.458zm0 14.14h11.458V422.5h-11.458v-11.459zm-8.776 72.408V471.99h11.458v11.459h-11.458zm11.458 3.169v11.458h-11.458v-11.458h11.458zm-11.458-17.553v-11.459h11.458v11.459h-11.458zm0-14.628v-11.459h11.458v11.459h-11.458zm-5.608-100.201h11.459v11.459h-11.459v-11.459zm0 14.141h11.459v11.458h-11.459v-11.458zm0 14.14h11.459v11.458h-11.459v-11.458zm0 14.384h11.459v11.458h-11.459v-11.458zm0 14.14h11.459V422.5h-11.459v-11.459zm-9.02 31.937h11.458v11.459h-11.458v-11.459zm0 14.628h11.458v11.459h-11.458v-11.459zm0 29.012h11.458v11.458h-11.458v-11.458zM31.518 622.413H18.11v-13.409h13.408v13.409zm0-17.554H18.11v-13.408h13.408v13.408zm0-17.553H18.11v-13.409h13.408v13.409zm0-17.553H18.11v-13.409h13.408v13.409zm0-17.31H18.11v-13.409h13.408v13.409zm0-17.553H18.11v-13.409h13.408v13.409zm0-17.554H18.11v-13.408h13.408v13.408zm0-17.553H18.11v-13.409h13.408v13.409zm0-17.553H18.11v-13.409h13.408v13.409zm0-17.31H18.11v-13.409h13.408v13.409zm0-17.553H18.11v-13.409h13.408v13.409zm0-17.554H18.11v-13.408h13.408v13.408zm0-17.553H18.11v-13.409h13.408v13.409zm0-17.553H18.11v-13.409h13.408v13.409zm0-17.31H18.11v-13.409h13.408v13.409zm0-17.553H18.11v-13.409h13.408v13.409zm0-17.554H18.11v-13.408h13.408v13.408zm0-17.553H18.11v-13.409h13.408v13.409zm17.797 297.676H35.907v-13.409h13.408v13.409zm0-17.554H35.907v-13.408h13.408v13.408zm0-17.553H35.907v-13.409h13.408v13.409zm0-17.553H35.907v-13.409h13.408v13.409zm0-17.31H35.907v-13.409h13.408v13.409zm0-17.553H35.907v-13.409h13.408v13.409zm0-17.554H35.907v-13.408h13.408v13.408zm0-17.553H35.907v-13.409h13.408v13.409zm0-17.553H35.907v-13.409h13.408v13.409zm0-17.31H35.907v-13.409h13.408v13.409zm0-17.553H35.907v-13.409h13.408v13.409zm0-17.554H35.907v-13.408h13.408v13.408zm0-17.553H35.907v-13.409h13.408v13.409zm0-17.553H35.907v-13.409h13.408v13.409zm0-17.31H35.907v-13.409h13.408v13.409zm0-17.553H35.907v-13.409h13.408v13.409zm0-17.554H35.907v-13.408h13.408v13.408zm0-17.553H35.907v-13.409h13.408v13.409zm17.797 297.676H53.704v-13.409h13.408v13.409zm0-17.554H53.704v-13.408h13.408v13.408zm0-17.553H53.704v-13.409h13.408v13.409zm0-17.553H53.704v-13.409h13.408v13.409zm0-17.31H53.704v-13.409h13.408v13.409zm0-17.553H53.704v-13.409h13.408v13.409zm0-17.554H53.704v-13.408h13.408v13.408zm0-17.553H53.704v-13.409h13.408v13.409zm0-17.553H53.704v-13.409h13.408v13.409zm0-17.31H53.704v-13.409h13.408v13.409zm0-17.553H53.704v-13.409h13.408v13.409zm0-17.554H53.704v-13.408h13.408v13.408zm0-17.553H53.704v-13.409h13.408v13.409zm0-17.553H53.704v-13.409h13.408v13.409zm0-17.31H53.704v-13.409h13.408v13.409zm0-17.553H53.704v-13.409h13.408v13.409zm0-17.554H53.704v-13.408h13.408v13.408zm0-17.553H53.704v-13.409h13.408v13.409zm17.553 297.676H71.257v-13.409h13.408v13.409zm0-17.554H71.257v-13.408h13.408v13.408zm0-17.553H71.257v-13.409h13.408v13.409zm0-17.553H71.257v-13.409h13.408v13.409zm0-17.31H71.257v-13.409h13.408v13.409zm0-17.553H71.257v-13.409h13.408v13.409zm0-17.554H71.257v-13.408h13.408v13.408zm0-17.553H71.257v-13.409h13.408v13.409zm0-17.553H71.257v-13.409h13.408v13.409zm0-17.31H71.257v-13.409h13.408v13.409zm0-17.553H71.257v-13.409h13.408v13.409zm0-17.554H71.257v-13.408h13.408v13.408zm0-17.553H71.257v-13.409h13.408v13.409zm0-17.553H71.257v-13.409h13.408v13.409zm0-17.31H71.257v-13.409h13.408v13.409zm0-17.553H71.257v-13.409h13.408v13.409zm0-17.554H71.257v-13.408h13.408v13.408zm0-17.553H71.257v-13.409h13.408v13.409zm17.797 297.676H89.298v-13.409h13.408v13.409h-.244zm0-17.554H89.298v-13.408h13.408v13.408h-.244zm0-17.553H89.298v-13.409h13.408v13.409h-.244zm0-17.553H89.298v-13.409h13.408v13.409h-.244zm0-17.31H89.298v-13.409h13.408v13.409h-.244zm0-17.553H89.298v-13.409h13.408v13.409h-.244zm0-17.554H89.298v-13.408h13.408v13.408h-.244zm0-17.553H89.298v-13.409h13.408v13.409h-.244zm0-17.553H89.298v-13.409h13.408v13.409h-.244zm0-17.31H89.298v-13.409h13.408v13.409h-.244zm0-17.553H89.298v-13.409h13.408v13.409h-.244zm0-17.554H89.298v-13.408h13.408v13.408h-.244zm0-17.553H89.298v-13.409h13.408v13.409h-.244zm0-17.553H89.298v-13.409h13.408v13.409h-.244zm0-17.31H89.298v-13.409h13.408v13.409h-.244zm0-17.553H89.298v-13.409h13.408v13.409h-.244zm0-17.554H89.298v-13.408h13.408v13.408h-.244zm0-17.553H89.298v-13.409h13.408v13.409h-.244zm17.797 297.676h-13.408v-13.409h13.408v13.409zm0-17.554h-13.408v-13.408h13.408v13.408zm0-17.553h-13.408v-13.409h13.408v13.409zm0-17.553h-13.408v-13.409h13.408v13.409zm0-17.31h-13.408v-13.409h13.408v13.409zm0-17.553h-13.408v-13.409h13.408v13.409zm0-17.554h-13.408v-13.408h13.408v13.408zm0-17.553h-13.408v-13.409h13.408v13.409zm0-17.553h-13.408v-13.409h13.408v13.409zm0-17.31h-13.408v-13.409h13.408v13.409zm0-17.553h-13.408v-13.409h13.408v13.409zm0-17.554h-13.408v-13.408h13.408v13.408zm0-17.553h-13.408v-13.409h13.408v13.409zm0-17.553h-13.408v-13.409h13.408v13.409zm0-17.31h-13.408v-13.409h13.408v13.409zm0-17.553h-13.408v-13.409h13.408v13.409zm0-17.554h-13.408v-13.408h13.408v13.408zm0-17.553h-13.408v-13.409h13.408v13.409zm17.797 297.676h-13.408v-13.409h13.408v13.409zm0-17.554h-13.408v-13.408h13.408v13.408zm0-17.553h-13.408v-13.409h13.408v13.409zm0-17.553h-13.408v-13.409h13.408v13.409zm0-17.31h-13.408v-13.409h13.408v13.409zm0-17.553h-13.408v-13.409h13.408v13.409zm0-17.554h-13.408v-13.408h13.408v13.408zm0-17.553h-13.408v-13.409h13.408v13.409zm0-17.553h-13.408v-13.409h13.408v13.409zm0-17.31h-13.408v-13.409h13.408v13.409zm0-17.553h-13.408v-13.409h13.408v13.409zm0-17.554h-13.408v-13.408h13.408v13.408zm0-17.553h-13.408v-13.409h13.408v13.409zm0-17.553h-13.408v-13.409h13.408v13.409zm0-17.31h-13.408v-13.409h13.408v13.409zm0-17.553h-13.408v-13.409h13.408v13.409zm0-17.554h-13.408v-13.408h13.408v13.408zm0-17.553h-13.408v-13.409h13.408v13.409zm17.797 297.676h-13.408v-13.409h13.408v13.409zm0-17.554h-13.408v-13.408h13.408v13.408zm0-17.553h-13.408v-13.409h13.408v13.409zm0-17.553h-13.408v-13.409h13.408v13.409zm0-17.31h-13.408v-13.409h13.408v13.409zm0-17.553h-13.408v-13.409h13.408v13.409zm0-17.554h-13.408v-13.408h13.408v13.408zm0-17.553h-13.408v-13.409h13.408v13.409zm0-17.553h-13.408v-13.409h13.408v13.409zm0-17.31h-13.408v-13.409h13.408v13.409zm0-17.553h-13.408v-13.409h13.408v13.409zm0-17.554h-13.408v-13.408h13.408v13.408zm0-17.553h-13.408v-13.409h13.408v13.409zm0-17.553h-13.408v-13.409h13.408v13.409zm0-17.31h-13.408v-13.409h13.408v13.409zm0-17.553h-13.408v-13.409h13.408v13.409zm0-17.554h-13.408v-13.408h13.408v13.408zm0-17.553h-13.408v-13.409h13.408v13.409zm17.797 297.676h-13.408v-13.409h13.408v13.409zm0-17.554h-13.408v-13.408h13.408v13.408zm0-17.553h-13.408v-13.409h13.408v13.409zm0-17.553h-13.408v-13.409h13.408v13.409zm0-17.31h-13.408v-13.409h13.408v13.409zm0-17.553h-13.408v-13.409h13.408v13.409zm0-17.554h-13.408v-13.408h13.408v13.408zm0-17.553h-13.408v-13.409h13.408v13.409zm0-17.553h-13.408v-13.409h13.408v13.409zm0-17.31h-13.408v-13.409h13.408v13.409zm0-17.553h-13.408v-13.409h13.408v13.409zm0-17.554h-13.408v-13.408h13.408v13.408zm0-17.553h-13.408v-13.409h13.408v13.409zm0-17.553h-13.408v-13.409h13.408v13.409zm0-17.31h-13.408v-13.409h13.408v13.409zm0-17.553h-13.408v-13.409h13.408v13.409zm0-17.554h-13.408v-13.408h13.408v13.408zm0-17.553h-13.408v-13.409h13.408v13.409zm17.554 297.676h-13.409v-13.409h13.409v13.409zm0-17.554h-13.409v-13.408h13.409v13.408zm0-17.553h-13.409v-13.409h13.409v13.409zm0-17.553h-13.409v-13.409h13.409v13.409zm0-17.31h-13.409v-13.409h13.409v13.409zm0-17.553h-13.409v-13.409h13.409v13.409zm0-17.554h-13.409v-13.408h13.409v13.408zm0-17.553h-13.409v-13.409h13.409v13.409zm0-17.553h-13.409v-13.409h13.409v13.409zm0-17.31h-13.409v-13.409h13.409v13.409zm0-17.553h-13.409v-13.409h13.409v13.409zm0-17.554h-13.409v-13.408h13.409v13.408zm0-17.553h-13.409v-13.409h13.409v13.409zm0-17.553h-13.409v-13.409h13.409v13.409zm0-17.31h-13.409v-13.409h13.409v13.409zm0-17.553h-13.409v-13.409h13.409v13.409zm0-17.554h-13.409v-13.408h13.409v13.408zm0-17.553h-13.409v-13.409h13.409v13.409zM209 622.413h-13.408v-13.409H209v13.409zm0-17.554h-13.408v-13.408H209v13.408zm0-17.553h-13.408v-13.409H209v13.409zm0-17.553h-13.408v-13.409H209v13.409zm0-17.31h-13.408v-13.409H209v13.409zm0-17.553h-13.408v-13.409H209v13.409zm0-17.554h-13.408v-13.408H209v13.408zm0-17.553h-13.408v-13.409H209v13.409zm0-17.553h-13.408v-13.409H209v13.409zm0-17.31h-13.408v-13.409H209v13.409zm0-17.553h-13.408v-13.409H209v13.409zm0-17.554h-13.408v-13.408H209v13.408zm0-17.553h-13.408v-13.409H209v13.409zm0-17.553h-13.408v-13.409H209v13.409zm0-17.31h-13.408v-13.409H209v13.409zm0-17.553h-13.408v-13.409H209v13.409zm0-17.554h-13.408v-13.408H209v13.408zm0-17.553h-13.408v-13.409H209v13.409zm14.628 301.576H212.17v-11.458h11.458v11.458zm0-13.896H212.17v-11.458h11.458v11.458zm0-14.384H212.17v-11.458h11.458v11.458zm0-13.896H212.17v-11.459h11.458v11.459zm0-14.141H212.17v-11.458h11.458v11.458zm0-13.896H212.17v-11.458h11.458V556.1zm0-13.896H212.17v-11.459h11.458v11.459zm1.463-40.958h11.458v11.458h-11.458v-11.458zm13.165 125.067h-11.459v-11.458h11.459v11.458zm0-13.896h-11.459v-11.458h11.459v11.458zm0-14.384h-11.459v-11.458h11.459v11.458zm0-13.896h-11.459v-11.459h11.459v11.459zm0-14.141h-11.459v-11.458h11.459v11.458zm0-13.896h-11.459v-11.458h11.459V556.1zm0-13.896h-11.459v-11.459h11.459v11.459zm1.463-40.958h11.458v11.458h-11.458v-11.458zm12.921 125.067h-11.459v-11.458h11.459v11.458zm0-13.896h-11.459v-11.458h11.459v11.458zm0-14.384h-11.459v-11.458h11.459v11.458zm0-13.896h-11.459v-11.459h11.459v11.459zm0-14.141h-11.459v-11.458h11.459v11.458zm0-13.896h-11.459v-11.458h11.459V556.1zm0-13.896h-11.459v-11.459h11.459v11.459zm1.706-40.958h11.458v11.458h-11.458v-11.458zm12.921 125.067h-11.458v-11.458h11.458v11.458zm0-13.896h-11.458v-11.458h11.458v11.458zm0-14.384h-11.458v-11.458h11.458v11.458zm0-13.896h-11.458v-11.459h11.458v11.459zm0-14.141h-11.458v-11.458h11.458v11.458zm0-13.896h-11.458v-11.458h11.458V556.1zm0-13.896h-11.458v-11.459h11.458v11.459zm1.463-40.958h11.458v11.458H268.73v-11.458zm12.921 125.067h-11.458v-11.458h11.458v11.458zm0-13.896h-11.458v-11.458h11.458v11.458zm0-14.384h-11.458v-11.458h11.458v11.458zm0-13.896h-11.458v-11.459h11.458v11.459zm0-14.141h-11.458v-11.458h11.458v11.458zm0-13.896h-11.458v-11.458h11.458V556.1zm0-13.896h-11.458v-11.459h11.458v11.459zm14.628 84.109H284.82v-11.458h11.459v11.458zm0-13.896H284.82v-11.458h11.459v11.458zm0-14.384H284.82v-11.458h11.459v11.458zm0-13.896H284.82v-11.459h11.459v11.459zm0-14.141H284.82v-11.458h11.459v11.458zm0-13.896H284.82v-11.458h11.459V556.1zm0-13.896H284.82v-11.459h11.459v11.459zm18.528-29.744h-11.458v-11.458h11.458v11.458zm0-14.384h-11.458v-11.458h11.458v11.458zm0-14.627h-11.458V471.99h11.458v11.459zm0-14.384h-11.458v-11.459h11.458v11.459zm0-14.628h-11.458v-11.459h11.458v11.459zm16.334 171.876h-11.458v-11.458h11.458v11.458zm0-13.896h-11.458v-11.458h11.458v11.458zm0-14.384h-11.458v-11.458h11.458v11.458zm0-13.896h-11.458v-11.459h11.458v11.459zm0-14.141h-11.458v-11.458h11.458v11.458zm0-13.896h-11.458v-11.458h11.458V556.1zm0-13.896h-11.458v-11.459h11.458v11.459zm1.219-29.744h-11.458v-11.458h11.458v11.458zm0-14.384h-11.458v-11.458h11.458v11.458zm0-14.627h-11.458V471.99h11.458v11.459zm0-14.384h-11.458v-11.459h11.458v11.459zm0-14.628h-11.458v-11.459h11.458v11.459zm13.897 171.876h-11.459v-11.458h11.459v11.458zm0-13.896h-11.459v-11.458h11.459v11.458zm0-14.384h-11.459v-11.458h11.459v11.458zm0-13.896h-11.459v-11.459h11.459v11.459zm0-14.141h-11.459v-11.458h11.459v11.458zm0-13.896h-11.459v-11.458h11.459V556.1zm0-13.896h-11.459v-11.459h11.459v11.459zm22.672 94.837h-7.313v-7.314h7.313v7.314zm0-29.744h-7.07v2.438h7.07v7.314h-7.07v2.682h7.07v7.314h-7.313v-.732h-11.215v-11.458h11.215v-2.682h-11.215v-11.458h11.215v-.975h7.313v7.557zm0-39.982h-7.07v2.681h7.07v7.314h-7.07v2.682h7.07v7.314h-7.07v2.682h7.07v7.314h-7.07v.731h-11.458v-11.458h11.215v-2.682h-11.215v-11.459h11.215v-2.681h-11.215v-11.459h11.458v1.219h7.07v7.802zm0-29.987h-7.07v2.682h7.07v7.313h-7.07v2.682h7.07v7.314h-7.313V556.1h-11.215v-11.458h11.215v-2.682h-11.215v-11.459h11.215v-.731h7.313v7.558zm0-9.752h-7.313v-7.314h7.313v7.314zm0-9.996h-7.313v-7.314h7.313v7.314zm0-9.995h-7.313v-7.314h7.313v7.314zm0-9.996h-7.313v-7.314h7.313v7.314zm0-9.996h-7.313v-7.314h7.313v7.314zm0-9.995h-7.313v-7.314h7.313v7.314zm0-9.996h-7.313v-7.314h7.313v7.314zm9.996 169.439h-7.314v-7.314h7.314v7.314zm0-9.752h-7.314v-7.314h7.314v7.314zm0-9.996h-7.314v-7.314h7.314v7.314zm0-9.996h-7.314v-7.314h7.314v7.314zm0-9.995h-7.314v-7.314h7.314v7.314zm0-9.996h-7.314v-7.314h7.314v7.314zm0-9.996h-7.314v-7.314h7.314v7.314zm0-9.995h-7.314v-7.314h7.314v7.314zm0-9.996h-7.314v-7.314h7.314v7.314zm0-9.996h-7.314v-7.313h7.314v7.313zm0-9.995h-7.314v-7.314h7.314v7.314zm0-9.752h-7.314v-7.314h7.314v7.314zm0-9.996h-7.314v-7.314h7.314v7.314zm0-9.995h-7.314v-7.314h7.314v7.314zm0-9.996h-7.314v-7.314h7.314v7.314zm0-9.996h-7.314v-7.314h7.314v7.314zm0-9.995h-7.314v-7.314h7.314v7.314zm0-9.996h-7.314v-7.314h7.314v7.314zm9.752 169.439h-7.314v-7.314h7.314v7.314zm0-9.752h-7.314v-7.314h7.314v7.314zm0-9.996h-7.314v-7.314h7.314v7.314zm0-9.996h-7.314v-7.314h7.314v7.314zm0-9.995h-7.314v-7.314h7.314v7.314zm0-9.996h-7.314v-7.314h7.314v7.314zm0-9.996h-7.314v-7.314h7.314v7.314zm0-9.995h-7.314v-7.314h7.314v7.314zm0-9.996h-7.314v-7.314h7.314v7.314zm0-9.996h-7.314v-7.313h7.314v7.313zm0-9.995h-7.314v-7.314h7.314v7.314zm0-9.752h-7.314v-7.314h7.314v7.314zm0-9.996h-7.314v-7.314h7.314v7.314zm0-9.995h-7.314v-7.314h7.314v7.314zm0-9.996h-7.314v-7.314h7.314v7.314zm0-9.996h-7.314v-7.314h7.314v7.314zm0-9.995h-7.314v-7.314h7.314v7.314zm0-9.996h-7.314v-7.314h7.314v7.314zm9.995 169.439h-7.314v-7.314h7.314v7.314zm0-9.752h-7.314v-7.314h7.314v7.314zm0-9.996h-7.314v-7.314h7.314v7.314zm0-9.996h-7.314v-7.314h7.314v7.314zm0-9.995h-7.314v-7.314h7.314v7.314zm0-9.996h-7.314v-7.314h7.314v7.314zm0-9.996h-7.314v-7.314h7.314v7.314zm0-9.995h-7.314v-7.314h7.314v7.314zm0-9.996h-7.314v-7.314h7.314v7.314zm0-9.996h-7.314v-7.313h7.314v7.313zm0-9.995h-7.314v-7.314h7.314v7.314zm0-9.752h-7.314v-7.314h7.314v7.314zm0-9.996h-7.314v-7.314h7.314v7.314zm0-9.995h-7.314v-7.314h7.314v7.314zm0-9.996h-7.314v-7.314h7.314v7.314zm0-9.996h-7.314v-7.314h7.314v7.314zm0-9.995h-7.314v-7.314h7.314v7.314zm0-9.996h-7.314v-7.314h7.314v7.314zm9.996 169.439h-7.314v-7.314h7.314v7.314zm0-9.752h-7.314v-7.314h7.314v7.314zm0-9.996h-7.314v-7.314h7.314v7.314zm0-9.996h-7.314v-7.314h7.314v7.314zm0-9.995h-7.314v-7.314h7.314v7.314zm0-9.996h-7.314v-7.314h7.314v7.314zm0-9.996h-7.314v-7.314h7.314v7.314zm0-9.995h-7.314v-7.314h7.314v7.314zm0-9.996h-7.314v-7.314h7.314v7.314zm0-9.996h-7.314v-7.313h7.314v7.313zm0-9.995h-7.314v-7.314h7.314v7.314zm0-9.752h-7.314v-7.314h7.314v7.314zm0-9.996h-7.314v-7.314h7.314v7.314zm0-9.995h-7.314v-7.314h7.314v7.314zm0-9.996h-7.314v-7.314h7.314v7.314zm0-9.996h-7.314v-7.314h7.314v7.314zm0-9.995h-7.314v-7.314h7.314v7.314zm0-9.996h-7.314v-7.314h7.314v7.314zm9.995 169.439h-7.313v-7.314h7.313v7.314zm0-9.752h-7.313v-7.314h7.313v7.314zm0-9.996h-7.313v-7.314h7.313v7.314zm0-9.996h-7.313v-7.314h7.313v7.314zm0-9.995h-7.313v-7.314h7.313v7.314zm0-9.996h-7.313v-7.314h7.313v7.314zm0-9.996h-7.313v-7.314h7.313v7.314zm0-9.995h-7.313v-7.314h7.313v7.314zm0-9.996h-7.313v-7.314h7.313v7.314zm0-9.996h-7.313v-7.313h7.313v7.313zm0-9.995h-7.313v-7.314h7.313v7.314zm0-9.752h-7.313v-7.314h7.313v7.314zm0-9.996h-7.313v-7.314h7.313v7.314zm0-9.995h-7.313v-7.314h7.313v7.314zm0-9.996h-7.313v-7.314h7.313v7.314zm0-9.996h-7.313v-7.314h7.313v7.314zm0-9.995h-7.313v-7.314h7.313v7.314zm0-9.996h-7.313v-7.314h7.313v7.314zm20.235 167.976h-7.557V455.9h7.557v179.678zm13.165 0h-7.558V455.9h7.558v179.678zm12.921 0h-7.557V455.9h7.557v179.678zm13.165 0h-7.558V455.9h7.558v179.678zm13.165 0h-7.558V455.9h7.558v179.678zm58.267-5.608h-4.876V352.042h4.876V629.97zm9.508 0h-4.876V352.042h4.876V629.97zm9.752 0h-4.876V352.042h4.876V629.97zm43.639 0h-33.644V352.042h33.644V629.97zm13.165 0h-4.876V352.042h4.876V629.97zm9.507 0h-4.875V352.042h4.875V629.97zm9.508 0h-4.875V352.042h4.875V629.97zm8.777 0h-4.876V352.042h4.876V629.97zm232.58-291.824v5.607h-46.321v-5.607h46.321zM839.696 524.65v-5.607h46.321v5.607h-46.321zm46.321 7.314v5.608h-46.321v-5.608h46.321zm-46.321-20.235v-5.607h46.321v5.607h-46.321zm0-12.921v-5.607h46.321v5.607h-46.321zm0-12.921v-5.608h46.321v5.608h-46.321zm0-12.922v-5.607h46.321v5.607h-46.321zm0-12.921v-5.607h46.321v5.607h-46.321zm0-12.921v-5.607h46.321v5.607h-46.321zm0-12.921v-5.608h46.321v5.608h-46.321zm0-12.921v-5.608h46.321v5.608h-46.321zm0-12.922v-5.607h46.321v5.607h-46.321zm0-12.921v-5.607h46.321v5.607h-46.321zm0-12.921v-5.607h46.321v5.607h-46.321zm0-12.921v-5.608h46.321v5.608h-46.321zm0-12.922v-5.607h46.321v5.607h-46.321zm-21.21-43.883h5.851v5.607h-5.851v-5.607zm-50.466 0h8.045v5.607h-8.045v-5.607zm-50.953 304.99h-13.165v-9.752h13.165v9.752zm31.206-28.525h-31.206v4.389h-13.165v-9.752h12.921v-.244h29.743v-7.314h-29.743v-5.607h29.743v-7.314h-29.743v-5.607h29.743v-7.314h-29.743v-5.12h-12.921v-9.752h12.921v-3.657h29.743v-7.314h-29.743v-5.607h29.743v-7.314h-29.743v-5.607h29.743v-7.314h-29.743v-1.707h-12.921v-9.752h13.165v5.852h29.256v-7.314H716.58v-5.608h29.743v-7.314h-42.421v-9.751h13.165v4.144h29.256v-7.314H716.58v-5.607h29.743v-7.314H716.58v-5.607h29.743v-7.314H716.58v-5.608h29.743v-7.313H716.58v-5.608h29.743v-7.314H716.58v-5.607h29.743v-7.314H716.58v-5.607h29.743v-7.314H716.58v-5.607h29.743v-7.314H716.58v-5.608h29.743v-7.314H716.58v-5.607h29.743v-7.314H716.58v-5.607H748.273v251.11zm1.706-270.614h-8.289v-5.607h8.289v5.607zm4.876-5.851h8.046v5.607h-8.046v-5.607zm31.937 276.465h-29.499v-5.607h29.743v5.607h-.244zm0-12.921h-29.499v-5.607h29.743v5.607h-.244zm0-12.921h-29.499v-5.607h29.743v5.607h-.244zm0-12.921h-29.499v-5.608h29.743v5.608h-.244zm0-12.921h-29.499v-5.608h29.743v5.608h-.244zm0-12.922h-29.499v-5.607h29.743v5.607h-.244zm0-12.921h-29.499v-5.607h29.743v5.607h-.244zm0-12.921h-29.499v-5.607h29.743v5.607h-.244zm0-12.921h-29.499v-5.608h29.743v5.608h-.244zm0-12.922h-29.499v-5.607h29.743v5.607h-.244zm0-12.921h-29.499v-5.607h29.743v5.607h-.244zm0-12.921h-29.499v-5.607h29.743v5.607h-.244zm0-12.921h-29.499v-5.608h29.743v5.608h-.244zm0-12.921h-29.499v-5.608h29.743v5.608h-.244zm0-12.922h-29.499v-5.607h29.743v5.607h-.244zm0-12.921h-29.499v-5.607h29.743v5.607h-.244zm0-12.921h-29.499v-5.607h29.743v5.607h-.244zm0-12.921h-29.499v-5.608h29.743v5.608h-.244zm0-12.922h-29.499v-5.607h29.743v5.607h-.244zm0-12.921h-29.499v-5.607h29.743v5.607h-.244zm2.438-25.111h-8.289v-5.607h8.289v5.607zm4.876-5.851h8.289v5.607h-8.289v-5.607zm33.4 30.962h-29.743v7.314h29.743v5.607h-29.743v7.314h29.743v5.608h-29.743v7.314h29.743v5.607h-29.743v7.314h29.743v5.607h-29.743v7.314h29.743v5.607h-29.743v7.314h29.743v5.608h-29.743v7.313h29.743v5.608h-29.743v7.314h29.743v5.607h-29.743v7.314h29.743v5.607h-29.743v7.314h29.743v5.607h-29.743v7.314h29.743v5.608h-29.743v7.314h29.743v5.607h-29.743v7.314h29.743v5.607h-29.743v7.314h29.743v5.607h-29.743v7.314h29.743v5.608h-29.743v7.313h29.743v5.608h-29.743v7.314h29.743v5.607h-29.743v7.314h29.743v5.607h-29.743v7.314h29.743v5.607H795.813v-251.11H827.506v5.607zm8.045-30.962h5.851v5.607h-5.851v-5.607zm51.684 304.502h-19.747v-7.314h19.747v7.314zm0-13.409h-19.747v-7.314h19.747v7.314zm0-13.409h-19.747v-1.219h-27.549v-5.607h27.549v-.488h19.747v7.314zm0-13.652h-19.747v-.488h-27.549v-5.607h27.549v-1.219h19.747v7.314zm0-13.409h-47.296v-5.607h27.549V556.1h19.747v7.314zm0-13.409h-.975v.488h-46.321v-5.608h27.549v-2.194h19.747v7.314zm27.549 67.288h-19.747v-7.314h19.747v7.314zm0-13.409h-19.747v-7.314h19.747v7.314zm0-13.409h-19.747v-7.314h19.747v7.314zm0-13.652h-19.747v-7.314h19.747v7.314zm0-13.409h-19.747V556.1h19.747v7.314zm0-13.409h-19.747v-7.314h19.747v7.314zm27.793 67.288h-19.748v-7.314h19.748v7.314zm0-13.409h-19.748v-7.314h19.748v7.314zm0-13.409h-19.748v-7.314h19.748v7.314zm0-13.652h-19.748v-7.314h19.748v7.314zm0-13.409h-19.748V556.1h19.748v7.314zm0-13.409h-19.748v-7.314h19.748v7.314zm12.677-152.617h13.165v13.165h-13.165v-13.165zm0 32.182h13.165v13.165h-13.165V429.57zm0 64.606h13.165v13.165h-13.165v-13.165zm0 32.425h13.165v13.165h-13.165v-13.165zm0 64.362h13.165v13.165h-13.165v-13.165zm32.912 26.33h-19.747v-7.314h19.747v7.314zm0-26.818h-19.747v-7.314h19.747v7.314zm0-27.061h-19.747v6.095h19.747v7.314h-19.747v-4.876h-13.165v-13.165h13.165V556.1h19.747v7.314zm0-13.409h-19.747v-7.314h19.747v7.314zm58.994 83.866h-8.53v-8.533h8.53v8.533zm0-11.214h-8.53v-8.533h8.53v8.533zm0-11.215h-8.53v-8.533h8.53v8.533zm0-11.215h-8.53v-8.533h8.53v8.533zm0-11.214h-8.53v-8.533h8.53v8.533zm0-11.215h-8.53v-8.533h8.53v8.533zm0-11.458h-8.53v-8.533h8.53v8.533zm0-11.215h-8.53v-8.533h8.53v8.533zm0-11.215h-8.53v-8.533h8.53v8.533zm0-11.214h-8.53v-8.533h8.53v8.533zm0-11.215h-8.53v-8.533h8.53v8.533zm0-11.215h-8.53v-8.533h8.53v8.533zm0-11.214h-8.53v-8.533h8.53v8.533zm0-11.215h-8.53v-8.533h8.53v8.533zm0-11.215h-8.53v-8.533h8.53v8.533zm0-11.214h-8.53v-8.533h8.53v8.533zm0-11.215h-8.53v-8.533h8.53v8.533zm0-11.215h-8.53v-8.532h8.53v8.532zm11.71 190.893h-8.54v-8.533h8.54v8.533zm0-11.214h-8.54v-8.533h8.54v8.533zm0-11.215h-8.54v-8.533h8.54v8.533zm0-11.215h-8.54v-8.533h8.54v8.533zm0-11.214h-8.54v-8.533h8.54v8.533zm0-11.215h-8.54v-8.533h8.54v8.533zm0-11.458h-8.54v-8.533h8.54v8.533zm0-11.215h-8.54v-8.533h8.54v8.533zm0-11.215h-8.54v-8.533h8.54v8.533zm0-11.214h-8.54v-8.533h8.54v8.533zm0-11.215h-8.54v-8.533h8.54v8.533zm0-11.215h-8.54v-8.533h8.54v8.533zm0-11.214h-8.54v-8.533h8.54v8.533zm0-11.215h-8.54v-8.533h8.54v8.533zm0-11.215h-8.54v-8.533h8.54v8.533zm0-11.214h-8.54v-8.533h8.54v8.533zm0-11.215h-8.54v-8.533h8.54v8.533zm0-11.215h-8.54v-8.532h8.54v8.532zm11.7 190.893h-8.53v-8.533h8.53v8.533zm0-11.214h-8.53v-8.533h8.53v8.533zm0-11.215h-8.53v-8.533h8.53v8.533zm0-11.215h-8.53v-8.533h8.53v8.533zm0-11.214h-8.53v-8.533h8.53v8.533zm0-11.215h-8.53v-8.533h8.53v8.533zm0-11.458h-8.53v-8.533h8.53v8.533zm0-11.215h-8.53v-8.533h8.53v8.533zm0-11.215h-8.53v-8.533h8.53v8.533zm0-11.214h-8.53v-8.533h8.53v8.533zm0-11.215h-8.53v-8.533h8.53v8.533zm0-11.215h-8.53v-8.533h8.53v8.533zm0-11.214h-8.53v-8.533h8.53v8.533zm0-11.215h-8.53v-8.533h8.53v8.533zm0-11.215h-8.53v-8.533h8.53v8.533zm0-11.214h-8.53v-8.533h8.53v8.533zm0-11.215h-8.53v-8.533h8.53v8.533zm0-11.215h-8.53v-8.532h8.53v8.532zm11.7 190.893h-8.53v-8.533h8.53v8.533zm0-11.214h-8.53v-8.533h8.53v8.533zm0-11.215h-8.53v-8.533h8.53v8.533zm0-11.215h-8.53v-8.533h8.53v8.533zm0-11.214h-8.53v-8.533h8.53v8.533zm0-11.215h-8.53v-8.533h8.53v8.533zm0-11.458h-8.53v-8.533h8.53v8.533zm0-11.215h-8.53v-8.533h8.53v8.533zm0-11.215h-8.53v-8.533h8.53v8.533zm0-11.214h-8.53v-8.533h8.53v8.533zm0-11.215h-8.53v-8.533h8.53v8.533zm0-11.215h-8.53v-8.533h8.53v8.533zm0-11.214h-8.53v-8.533h8.53v8.533zm0-11.215h-8.53v-8.533h8.53v8.533zm0-11.215h-8.53v-8.533h8.53v8.533zm0-11.214h-8.53v-8.533h8.53v8.533zm0-11.215h-8.53v-8.533h8.53v8.533zm0-11.215h-8.53v-8.532h8.53v8.532zm11.7 190.893h-8.53v-8.533h8.53v8.533zm0-11.214h-8.53v-8.533h8.53v8.533zm0-11.215h-8.53v-8.533h8.53v8.533zm0-11.215h-8.53v-8.533h8.53v8.533zm0-11.214h-8.53v-8.533h8.53v8.533zm0-11.215h-8.53v-8.533h8.53v8.533zm0-11.458h-8.53v-8.533h8.53v8.533zm0-11.215h-8.53v-8.533h8.53v8.533zm0-11.215h-8.53v-8.533h8.53v8.533zm0-11.214h-8.53v-8.533h8.53v8.533zm0-11.215h-8.53v-8.533h8.53v8.533zm0-11.215h-8.53v-8.533h8.53v8.533zm0-11.214h-8.53v-8.533h8.53v8.533zm0-11.215h-8.53v-8.533h8.53v8.533zm0-11.215h-8.53v-8.533h8.53v8.533zm0-11.214h-8.53v-8.533h8.53v8.533zm0-11.215h-8.53v-8.533h8.53v8.533zm0-11.215h-8.53v-8.532h8.53v8.532zm52.42 190.893h-8.53v-8.533h8.53v8.533zm0-11.214h-8.53v-8.533h8.53v8.533zm0-11.215h-8.53v-8.533h8.53v8.533zm0-11.215h-8.53v-8.533h8.53v8.533zm0-11.214h-8.53v-8.533h8.53v8.533zm0-11.215h-8.53v-8.533h8.53v8.533zm0-11.458h-8.53v-8.533h8.53v8.533zm0-11.215h-8.53v-8.533h8.53v8.533zm0-11.215h-8.53v-8.533h8.53v8.533zm0-11.214h-8.53v-8.533h8.53v8.533zm0-11.215h-8.53v-8.533h8.53v8.533zm0-11.215h-8.53v-8.533h8.53v8.533zm0-11.214h-8.53v-8.533h8.53v8.533zm0-11.215h-8.53v-8.533h8.53v8.533zm0-11.215h-8.53v-8.533h8.53v8.533zm0-11.214h-8.53v-8.533h8.53v8.533zm0-11.215h-8.53v-8.533h8.53v8.533zm0-11.215h-8.53v-8.532h8.53v8.532zm11.21 190.893h-8.53v-8.533h8.53v8.533zm0-11.214h-8.53v-8.533h8.53v8.533zm0-11.215h-8.53v-8.533h8.53v8.533zm0-11.215h-8.53v-8.533h8.53v8.533zm0-11.214h-8.53v-8.533h8.53v8.533zm0-11.215h-8.53v-8.533h8.53v8.533zm0-11.458h-8.53v-8.533h8.53v8.533zm0-11.215h-8.53v-8.533h8.53v8.533zm0-11.215h-8.53v-8.533h8.53v8.533zm0-11.214h-8.53v-8.533h8.53v8.533zm0-11.215h-8.53v-8.533h8.53v8.533zm0-11.215h-8.53v-8.533h8.53v8.533zm0-11.214h-8.53v-8.533h8.53v8.533zm0-11.215h-8.53v-8.533h8.53v8.533zm0-11.215h-8.53v-8.533h8.53v8.533zm0-11.214h-8.53v-8.533h8.53v8.533zm0-11.215h-8.53v-8.533h8.53v8.533zm0-11.215h-8.53v-8.532h8.53v8.532zm11.46 190.893h-8.53v-8.533h8.53v8.533zm0-11.214h-8.53v-8.533h8.53v8.533zm0-11.215h-8.53v-8.533h8.53v8.533zm0-11.215h-8.53v-8.533h8.53v8.533zm0-11.214h-8.53v-8.533h8.53v8.533zm0-11.215h-8.53v-8.533h8.53v8.533zm0-11.458h-8.53v-8.533h8.53v8.533zm0-11.215h-8.53v-8.533h8.53v8.533zm0-11.215h-8.53v-8.533h8.53v8.533zm0-11.214h-8.53v-8.533h8.53v8.533zm0-11.215h-8.53v-8.533h8.53v8.533zm0-11.215h-8.53v-8.533h8.53v8.533zm0-11.214h-8.53v-8.533h8.53v8.533zm0-11.215h-8.53v-8.533h8.53v8.533zm0-11.215h-8.53v-8.533h8.53v8.533zm0-11.214h-8.53v-8.533h8.53v8.533zm0-11.215h-8.53v-8.533h8.53v8.533zm0-11.215h-8.53v-8.532h8.53v8.532zm11.46 190.893h-8.53v-8.533h8.53v8.533zm0-11.214h-8.53v-8.533h8.53v8.533zm0-11.215h-8.53v-8.533h8.53v8.533zm0-11.215h-8.53v-8.533h8.53v8.533zm0-11.214h-8.53v-8.533h8.53v8.533zm0-11.215h-8.53v-8.533h8.53v8.533zm0-11.458h-8.53v-8.533h8.53v8.533zm0-11.215h-8.53v-8.533h8.53v8.533zm0-11.215h-8.53v-8.533h8.53v8.533zm0-11.214h-8.53v-8.533h8.53v8.533zm0-11.215h-8.53v-8.533h8.53v8.533zm0-11.215h-8.53v-8.533h8.53v8.533zm0-11.214h-8.53v-8.533h8.53v8.533zm0-11.215h-8.53v-8.533h8.53v8.533zm0-11.215h-8.53v-8.533h8.53v8.533zm0-11.214h-8.53v-8.533h8.53v8.533zm0-11.215h-8.53v-8.533h8.53v8.533zm0-11.215h-8.53v-8.532h8.53v8.532zm11.46 190.893h-8.53v-8.533h8.53v8.533zm0-11.214h-8.53v-8.533h8.53v8.533zm0-11.215h-8.53v-8.533h8.53v8.533zm0-11.215h-8.53v-8.533h8.53v8.533zm0-11.214h-8.53v-8.533h8.53v8.533zm0-11.215h-8.53v-8.533h8.53v8.533zm0-11.458h-8.53v-8.533h8.53v8.533zm0-11.215h-8.53v-8.533h8.53v8.533zm0-11.215h-8.53v-8.533h8.53v8.533zm0-11.214h-8.53v-8.533h8.53v8.533zm0-11.215h-8.53v-8.533h8.53v8.533zm0-11.215h-8.53v-8.533h8.53v8.533zm0-11.214h-8.53v-8.533h8.53v8.533zm0-11.215h-8.53v-8.533h8.53v8.533zm0-11.215h-8.53v-8.533h8.53v8.533zm0-11.214h-8.53v-8.533h8.53v8.533zm0-11.215h-8.53v-8.533h8.53v8.533zm0-11.215h-8.53v-8.532h8.53v8.532zm11.21 190.893h-8.53v-8.533h8.53v8.533zm0-11.214h-8.53v-8.533h8.53v8.533zm0-11.215h-8.53v-8.533h8.53v8.533zm0-11.215h-8.53v-8.533h8.53v8.533zm0-11.214h-8.53v-8.533h8.53v8.533zm0-11.215h-8.53v-8.533h8.53v8.533zm0-11.458h-8.53v-8.533h8.53v8.533zm0-11.215h-8.53v-8.533h8.53v8.533zm0-11.215h-8.53v-8.533h8.53v8.533zm0-11.214h-8.53v-8.533h8.53v8.533zm0-11.215h-8.53v-8.533h8.53v8.533zm0-11.215h-8.53v-8.533h8.53v8.533zm0-11.214h-8.53v-8.533h8.53v8.533zm0-11.215h-8.53v-8.533h8.53v8.533zm0-11.215h-8.53v-8.533h8.53v8.533zm0-11.214h-8.53v-8.533h8.53v8.533zm0-11.215h-8.53v-8.533h8.53v8.533zm0-11.215h-8.53v-8.532h8.53v8.532zm11.46 190.893h-8.53v-8.533h8.53v8.533zm0-11.214h-8.53v-8.533h8.53v8.533zm0-11.215h-8.53v-8.533h8.53v8.533zm0-11.215h-8.53v-8.533h8.53v8.533zm0-11.214h-8.53v-8.533h8.53v8.533zm0-11.215h-8.53v-8.533h8.53v8.533zm0-11.458h-8.53v-8.533h8.53v8.533zm0-11.215h-8.53v-8.533h8.53v8.533zm0-11.215h-8.53v-8.533h8.53v8.533zm0-11.214h-8.53v-8.533h8.53v8.533zm0-11.215h-8.53v-8.533h8.53v8.533zm0-11.215h-8.53v-8.533h8.53v8.533zm0-11.214h-8.53v-8.533h8.53v8.533zm0-11.215h-8.53v-8.533h8.53v8.533zm0-11.215h-8.53v-8.533h8.53v8.533zm0-11.214h-8.53v-8.533h8.53v8.533zm0-11.215h-8.53v-8.533h8.53v8.533zm0-11.215h-8.53v-8.532h8.53v8.532zm11.46 190.893h-8.53v-8.533h8.53v8.533zm0-11.214h-8.53v-8.533h8.53v8.533zm0-11.215h-8.53v-8.533h8.53v8.533zm0-11.215h-8.53v-8.533h8.53v8.533zm0-11.214h-8.53v-8.533h8.53v8.533zm0-11.215h-8.53v-8.533h8.53v8.533zm0-11.458h-8.53v-8.533h8.53v8.533zm0-11.215h-8.53v-8.533h8.53v8.533zm0-11.215h-8.53v-8.533h8.53v8.533zm0-11.214h-8.53v-8.533h8.53v8.533zm0-11.215h-8.53v-8.533h8.53v8.533zm0-11.215h-8.53v-8.533h8.53v8.533zm0-11.214h-8.53v-8.533h8.53v8.533zm0-11.215h-8.53v-8.533h8.53v8.533zm0-11.215h-8.53v-8.533h8.53v8.533zm0-11.214h-8.53v-8.533h8.53v8.533zm0-11.215h-8.53v-8.533h8.53v8.533zm0-11.215h-8.53v-8.532h8.53v8.532zm11.46 190.893h-8.54v-8.533h8.54v8.533zm0-11.214h-8.54v-8.533h8.54v8.533zm0-11.215h-8.54v-8.533h8.54v8.533zm0-11.215h-8.54v-8.533h8.54v8.533zm0-11.214h-8.54v-8.533h8.54v8.533zm0-11.215h-8.54v-8.533h8.54v8.533zm0-11.458h-8.54v-8.533h8.54v8.533zm0-11.215h-8.54v-8.533h8.54v8.533zm0-11.215h-8.54v-8.533h8.54v8.533zm0-11.214h-8.54v-8.533h8.54v8.533zm0-11.215h-8.54v-8.533h8.54v8.533zm0-11.215h-8.54v-8.533h8.54v8.533zm0-11.214h-8.54v-8.533h8.54v8.533zm0-11.215h-8.54v-8.533h8.54v8.533zm0-11.215h-8.54v-8.533h8.54v8.533zm0-11.214h-8.54v-8.533h8.54v8.533zm0-11.215h-8.54v-8.533h8.54v8.533zm0-11.215h-8.54v-8.532h8.54v8.532zm11.21 190.893h-8.53v-8.533h8.53v8.533zm0-11.214h-8.53v-8.533h8.53v8.533zm0-11.215h-8.53v-8.533h8.53v8.533zm0-11.215h-8.53v-8.533h8.53v8.533zm0-11.214h-8.53v-8.533h8.53v8.533zm0-11.215h-8.53v-8.533h8.53v8.533zm0-11.458h-8.53v-8.533h8.53v8.533zm0-11.215h-8.53v-8.533h8.53v8.533zm0-11.215h-8.53v-8.533h8.53v8.533zm0-11.214h-8.53v-8.533h8.53v8.533zm0-11.215h-8.53v-8.533h8.53v8.533zm0-11.215h-8.53v-8.533h8.53v8.533zm0-11.214h-8.53v-8.533h8.53v8.533zm0-11.215h-8.53v-8.533h8.53v8.533zm0-11.215h-8.53v-8.533h8.53v8.533zm0-11.214h-8.53v-8.533h8.53v8.533zm0-11.215h-8.53v-8.533h8.53v8.533zm0-11.215h-8.53v-8.532h8.53v8.532zm13.9 215.76h-7.07v-24.867h-3.9v-8.533h3.9v-2.681h-3.9v-8.533h3.9v-2.682h-3.9v-8.533h3.9v-2.682h-3.9v-8.533h3.9v-2.681h-3.9v-8.533h3.9v-2.682h-3.9v-8.533h3.9v-2.682h-3.9v-8.533h3.9v-2.681h-3.9v-8.533h3.9v-2.682h-3.9v-8.533h3.9v-2.682h-3.9v-8.776h3.9v-2.682h-3.9v-8.533h3.9v-2.682h-3.9v-8.533h3.9v-2.681h-3.9v-8.533h3.9v-2.682h-3.9v-8.533h3.9v-2.682h-3.9v-8.533h3.9v-2.681h-3.9v-8.533h3.9v-2.682h-3.9v-8.533h3.9v-2.682h-3.9v-8.532h3.9V345.46h7.07v313.278zm13.65 0h-7.07V345.216h7.07v313.522zm13.9 0h-7.07V345.216h7.07v313.522zm63.38 0h-48.76V345.216h48.76v313.522zm18.78 0h-7.07V345.216h7.07v313.522zm13.89 0h-7.07V345.216h7.07v313.522zm13.9 0h-7.07V345.216h7.07v313.522zm12.92 0h-7.07V345.216h7.07v313.522z" fill="#7D9FAD" fill-opacity=".08"/><path d="M1332.65 362.525h-2.68v278.66h2.68v-278.66zM1328.75 362.525h-2.68v278.66h2.68v-278.66z" fill="#7D9FAD" fill-opacity=".08"/><path d="M1346.06 350.823h-33.16v302.552h33.16V350.823zm-6.34 297.432h-20.97V355.699h20.97v292.556z" fill="#7D9FAD" fill-opacity=".08"/></svg>