<svg width="80" height="16" fill="none" xmlns="http://www.w3.org/2000/svg"><path d="M7.848 10.952h-.205L4.05 1.676A1.957 1.957 0 002.242.428h-.298C.547.428-.385 1.863.156 3.13l4.842 11.25a1.939 1.939 0 001.789 1.174H8.37c.8 0 1.527-.503 1.807-1.248l4.302-11.25C14.964 1.788 14.032.41 12.673.41a1.94 1.94 0 00-1.845 1.34l-2.98 9.202zM29.473 2.198c-.689-.69-1.527-1.23-2.533-1.62C25.934.185 24.798 0 23.532 0c-1.211 0-2.31.168-3.279.522a6.919 6.919 0 00-2.533 1.564c-.708.69-1.248 1.528-1.639 2.515-.391.987-.577 2.123-.577 3.39 0 1.192.167 2.272.521 3.26a6.918 6.918 0 001.565 2.533c.689.689 1.527 1.229 2.533 1.62s2.142.577 3.409.577c1.21 0 2.31-.167 3.278-.521a6.918 6.918 0 002.533-1.565c.708-.689 1.248-1.527 1.64-2.514.39-.988.576-2.124.576-3.39 0-1.192-.167-2.273-.521-3.26a6.918 6.918 0 00-1.565-2.533zm-3.073 9.35c-.745.745-1.695 1.118-2.868 1.118-.634 0-1.174-.112-1.658-.354a3.538 3.538 0 01-1.248-.987 4.727 4.727 0 01-.782-1.49 5.802 5.802 0 01-.28-1.844c0-.82.093-1.528.298-2.124.205-.577.485-1.061.838-1.453a3.148 3.148 0 011.248-.838 4.753 4.753 0 011.565-.26c1.267 0 2.254.428 2.943 1.285.69.857 1.024 1.974 1.024 3.371.019 1.64-.354 2.831-1.08 3.576zM45.51.428h-1.415a1.2 1.2 0 00-.95.485l-2.254 3.203c-.465.652-1.453.652-1.9-.018L36.85.95a1.167 1.167 0 00-.95-.503h-1.825c-.95 0-1.49 1.062-.931 1.825l3.464 4.806c.298.41.298.95 0 1.36l-3.818 5.29c-.559.763 0 1.844.931 1.844h1.434a1.2 1.2 0 00.95-.485l2.608-3.706a1.167 1.167 0 011.9 0l2.552 3.688c.223.316.577.503.95.503h1.75a1.16 1.16 0 00.95-1.826l-3.762-5.383c-.28-.41-.28-.931 0-1.34l3.39-4.77C47 1.51 46.46.429 45.51.429zM62.442 10.97V1.21a.755.755 0 00-.764-.763h-4.097a.755.755 0 00-.764.764v1.788c0 .428.335.764.764.764h.26c.429 0 .764.335.764.763v5.514a.945.945 0 01-.056.316 3.818 3.818 0 01-1.192 1.49 3.268 3.268 0 01-2.012.67c-.838 0-1.415-.278-1.825-.819-.391-.54-.54-1.434-.54-2.663V1.21a.755.755 0 00-.764-.764h-4.098a.755.755 0 00-.763.764v1.788c0 .428.335.764.763.764.429 0 .764.335.764.763v5.309c0 1.192.168 2.179.41 2.961.242.783.596 1.416 1.043 1.882a3.85 3.85 0 001.62 1.005c.634.205 1.341.298 2.105.298 1.136 0 2.16-.279 3.092-.782.931-.503 1.62-1.173 2.086-1.937h.112l.54 1.77c.093.316.391.54.745.54h3.372a.755.755 0 00.763-.764V13.02a.755.755 0 00-.763-.764h-.764a.755.755 0 01-.764-.764v-.521h-.037zM78.46 8.885a5.901 5.901 0 00-1.825-1.379 12.85 12.85 0 00-2.384-.856c-.875-.224-1.658-.429-2.384-.615-.727-.186-1.341-.391-1.826-.615-.502-.223-.745-.521-.745-.875 0-.466.261-.801.783-1.025.521-.223 1.21-.335 2.049-.335.465 0 .931.056 1.415.15.466.092.932.223 1.36.39.428.168.838.336 1.248.522.019.018.037.018.056.018a1.24 1.24 0 001.602-.447l.428-.689a1.222 1.222 0 00-.372-1.676h-.019c-.391-.26-.876-.484-1.416-.69-.558-.204-1.21-.372-1.955-.52-.745-.15-1.62-.206-2.608-.206-.931 0-1.788.093-2.59.298-.8.205-1.49.503-2.048.894a4.526 4.526 0 00-1.36 1.435c-.335.558-.503 1.229-.503 1.974 0 .913.243 1.658.745 2.216a6.004 6.004 0 001.826 1.416c.726.373 1.527.67 2.384.876.875.204 1.658.41 2.384.614.727.205 1.341.429 1.826.67.502.243.744.56.744.97 0 .52-.223.893-.689 1.117-.465.223-1.024.335-1.657.335-.596 0-1.211-.074-1.826-.223a11.793 11.793 0 01-1.732-.56c-.54-.223-1.043-.465-1.471-.744-.02 0-.038-.019-.038-.019a1.232 1.232 0 00-1.695.373l-.503.8a1.215 1.215 0 00.373 1.696c.596.39 1.285.745 2.067 1.061 1.267.522 2.757.764 4.49.764 2.197 0 3.855-.447 4.973-1.322 1.117-.876 1.676-2.087 1.676-3.614-.056-.894-.298-1.62-.782-2.18z" fill="#326FFF"/></svg>